<svg width="23" height="18" viewBox="0 0 23 18" fill="none" xmlns="http://www.w3.org/2000/svg">
<rect y="8" width="23" height="1" rx="0.5" fill="white"/>
<path d="M15.792 13.084C15.176 13.084 14.624 12.984 14.136 12.784C13.648 12.584 13.256 12.288 12.96 11.896C12.672 11.504 12.52 11.032 12.504 10.48H14.688C14.72 10.792 14.828 11.032 15.012 11.2C15.196 11.36 15.436 11.44 15.732 11.44C16.036 11.44 16.276 11.372 16.452 11.236C16.628 11.092 16.716 10.896 16.716 10.648C16.716 10.44 16.644 10.268 16.5 10.132C16.364 9.996 16.192 9.884 15.984 9.796C15.784 9.708 15.496 9.608 15.12 9.496C14.576 9.328 14.132 9.16 13.788 8.992C13.444 8.824 13.148 8.576 12.9 8.248C12.652 7.92 12.528 7.492 12.528 6.964C12.528 6.18 12.812 5.568 13.38 5.128C13.948 4.68 14.688 4.456 15.6 4.456C16.528 4.456 17.276 4.68 17.844 5.128C18.412 5.568 18.716 6.184 18.756 6.976H16.536C16.52 6.704 16.42 6.492 16.236 6.34C16.052 6.18 15.816 6.1 15.528 6.1C15.28 6.1 15.08 6.168 14.928 6.304C14.776 6.432 14.7 6.62 14.7 6.868C14.7 7.14 14.828 7.352 15.084 7.504C15.34 7.656 15.74 7.82 16.284 7.996C16.828 8.18 17.268 8.356 17.604 8.524C17.948 8.692 18.244 8.936 18.492 9.256C18.74 9.576 18.864 9.988 18.864 10.492C18.864 10.972 18.74 11.408 18.492 11.8C18.252 12.192 17.9 12.504 17.436 12.736C16.972 12.968 16.424 13.084 15.792 13.084Z" fill="black" fill-opacity="0.78"/>
<path d="M11.04 4.576V13H8.988V9.532H5.796V13H3.744V4.576H5.796V7.876H8.988V4.576H11.04Z" fill="#287ECD"/>
</svg>
