<svg width="33" height="18" viewBox="0 0 33 18" fill="none" xmlns="http://www.w3.org/2000/svg">
<path d="M3.796 11.416H6.484V13H1.744V4.576H3.796V11.416ZM14.9988 13H12.9468L9.51475 7.804V13H7.46275V4.576H9.51475L12.9468 9.796V4.576H14.9988V13ZM22.0782 7.24C21.9262 6.96 21.7062 6.748 21.4182 6.604C21.1382 6.452 20.8062 6.376 20.4222 6.376C19.7582 6.376 19.2262 6.596 18.8262 7.036C18.4262 7.468 18.2262 8.048 18.2262 8.776C18.2262 9.552 18.4342 10.16 18.8502 10.6C19.2742 11.032 19.8542 11.248 20.5902 11.248C21.0942 11.248 21.5182 11.12 21.8622 10.864C22.2142 10.608 22.4702 10.24 22.6302 9.76H20.0262V8.248H24.4902V10.156C24.3382 10.668 24.0782 11.144 23.7102 11.584C23.3502 12.024 22.8902 12.38 22.3302 12.652C21.7702 12.924 21.1382 13.06 20.4342 13.06C19.6022 13.06 18.8582 12.88 18.2022 12.52C17.5542 12.152 17.0462 11.644 16.6782 10.996C16.3182 10.348 16.1382 9.608 16.1382 8.776C16.1382 7.944 16.3182 7.204 16.6782 6.556C17.0462 5.9 17.5542 5.392 18.2022 5.032C18.8502 4.664 19.5902 4.48 20.4222 4.48C21.4302 4.48 22.2782 4.724 22.9662 5.212C23.6622 5.7 24.1222 6.376 24.3462 7.24H22.0782ZM29.9228 13L28.1708 9.82H27.6788V13H25.6268V4.576H29.0708C29.7348 4.576 30.2988 4.692 30.7628 4.924C31.2348 5.156 31.5868 5.476 31.8188 5.884C32.0508 6.284 32.1668 6.732 32.1668 7.228C32.1668 7.788 32.0068 8.288 31.6868 8.728C31.3748 9.168 30.9108 9.48 30.2948 9.664L32.2388 13H29.9228ZM27.6788 8.368H28.9508C29.3268 8.368 29.6068 8.276 29.7908 8.092C29.9828 7.908 30.0788 7.648 30.0788 7.312C30.0788 6.992 29.9828 6.74 29.7908 6.556C29.6068 6.372 29.3268 6.28 28.9508 6.28H27.6788V8.368Z" fill="#287ECD"/>
<rect y="8" width="16" height="2" fill="white"/>
</svg>
