<svg width="121" height="18" viewBox="0 0 121 18" fill="none" xmlns="http://www.w3.org/2000/svg">
<path d="M71.792 13.084C71.176 13.084 70.624 12.984 70.136 12.784C69.648 12.584 69.256 12.288 68.96 11.896C68.672 11.504 68.52 11.032 68.504 10.48H70.688C70.72 10.792 70.828 11.032 71.012 11.2C71.196 11.36 71.436 11.44 71.732 11.44C72.036 11.44 72.276 11.372 72.452 11.236C72.628 11.092 72.716 10.896 72.716 10.648C72.716 10.44 72.644 10.268 72.5 10.132C72.364 9.996 72.192 9.884 71.984 9.796C71.784 9.708 71.496 9.608 71.12 9.496C70.576 9.328 70.132 9.16 69.788 8.992C69.444 8.824 69.148 8.576 68.9 8.248C68.652 7.92 68.528 7.492 68.528 6.964C68.528 6.18 68.812 5.568 69.38 5.128C69.948 4.68 70.688 4.456 71.6 4.456C72.528 4.456 73.276 4.68 73.844 5.128C74.412 5.568 74.716 6.184 74.756 6.976H72.536C72.52 6.704 72.42 6.492 72.236 6.34C72.052 6.18 71.816 6.1 71.528 6.1C71.28 6.1 71.08 6.168 70.928 6.304C70.776 6.432 70.7 6.62 70.7 6.868C70.7 7.14 70.828 7.352 71.084 7.504C71.34 7.656 71.74 7.82 72.284 7.996C72.828 8.18 73.268 8.356 73.604 8.524C73.948 8.692 74.244 8.936 74.492 9.256C74.74 9.576 74.864 9.988 74.864 10.492C74.864 10.972 74.74 11.408 74.492 11.8C74.252 12.192 73.9 12.504 73.436 12.736C72.972 12.968 72.424 13.084 71.792 13.084ZM82.7868 4.576V6.22H80.5548V13H78.5028V6.22H76.2708V4.576H82.7868ZM86.4327 4.576V9.616C86.4327 10.12 86.5567 10.508 86.8047 10.78C87.0527 11.052 87.4167 11.188 87.8967 11.188C88.3767 11.188 88.7447 11.052 89.0007 10.78C89.2567 10.508 89.3847 10.12 89.3847 9.616V4.576H91.4367V9.604C91.4367 10.356 91.2767 10.992 90.9567 11.512C90.6367 12.032 90.2047 12.424 89.6607 12.688C89.1247 12.952 88.5247 13.084 87.8607 13.084C87.1967 13.084 86.6007 12.956 86.0727 12.7C85.5527 12.436 85.1407 12.044 84.8367 11.524C84.5327 10.996 84.3807 10.356 84.3807 9.604V4.576H86.4327ZM96.6336 4.576C97.5216 4.576 98.2976 4.752 98.9616 5.104C99.6256 5.456 100.138 5.952 100.498 6.592C100.866 7.224 101.05 7.956 101.05 8.788C101.05 9.612 100.866 10.344 100.498 10.984C100.138 11.624 99.6216 12.12 98.9496 12.472C98.2856 12.824 97.5136 13 96.6336 13H93.4776V4.576H96.6336ZM96.5016 11.224C97.2776 11.224 97.8816 11.012 98.3136 10.588C98.7456 10.164 98.9616 9.564 98.9616 8.788C98.9616 8.012 98.7456 7.408 98.3136 6.976C97.8816 6.544 97.2776 6.328 96.5016 6.328H95.5296V11.224H96.5016ZM104.848 4.576V13H102.796V4.576H104.848ZM110.919 13.084C110.127 13.084 109.399 12.9 108.735 12.532C108.079 12.164 107.555 11.652 107.163 10.996C106.779 10.332 106.587 9.588 106.587 8.764C106.587 7.94 106.779 7.2 107.163 6.544C107.555 5.888 108.079 5.376 108.735 5.008C109.399 4.64 110.127 4.456 110.919 4.456C111.711 4.456 112.435 4.64 113.091 5.008C113.755 5.376 114.275 5.888 114.651 6.544C115.035 7.2 115.227 7.94 115.227 8.764C115.227 9.588 115.035 10.332 114.651 10.996C114.267 11.652 113.747 12.164 113.091 12.532C112.435 12.9 111.711 13.084 110.919 13.084ZM110.919 11.212C111.591 11.212 112.127 10.988 112.527 10.54C112.935 10.092 113.139 9.5 113.139 8.764C113.139 8.02 112.935 7.428 112.527 6.988C112.127 6.54 111.591 6.316 110.919 6.316C110.239 6.316 109.695 6.536 109.287 6.976C108.887 7.416 108.687 8.012 108.687 8.764C108.687 9.508 108.887 10.104 109.287 10.552C109.695 10.992 110.239 11.212 110.919 11.212Z" fill="black" fill-opacity="0.78"/>
<rect y="8" width="121" height="1" rx="0.5" fill="white"/>
<path d="M13.04 4.576V13H10.988V9.532H7.796V13H5.744V4.576H7.796V7.876H10.988V4.576H13.04ZM17.1733 4.576V13H15.1213V4.576H17.1733ZM28.8004 4.576V13H26.7484V7.948L24.8644 13H23.2084L21.3124 7.936V13H19.2604V4.576H21.6844L24.0484 10.408L26.3884 4.576H28.8004ZM32.928 6.22V7.924H35.676V9.508H32.928V11.356H36.036V13H30.876V4.576H36.036V6.22H32.928ZM43.2482 4.576V10.312C43.2482 11.2 42.9962 11.884 42.4922 12.364C41.9962 12.844 41.3242 13.084 40.4762 13.084C39.5882 13.084 38.8762 12.832 38.3402 12.328C37.8042 11.824 37.5362 11.108 37.5362 10.18H39.5762C39.5762 10.532 39.6482 10.8 39.7922 10.984C39.9362 11.16 40.1442 11.248 40.4162 11.248C40.6642 11.248 40.8562 11.168 40.9922 11.008C41.1282 10.848 41.1962 10.616 41.1962 10.312V4.576H43.2482ZM47.5577 4.576V13H45.5057V4.576H47.5577ZM54.5288 13L51.6968 9.28V13H49.6448V4.576H51.6968V8.272L54.5048 4.576H56.9168L53.6528 8.704L57.0368 13H54.5288ZM62.596 13.084C61.804 13.084 61.076 12.9 60.412 12.532C59.756 12.164 59.232 11.652 58.84 10.996C58.456 10.332 58.264 9.588 58.264 8.764C58.264 7.94 58.456 7.2 58.84 6.544C59.232 5.888 59.756 5.376 60.412 5.008C61.076 4.64 61.804 4.456 62.596 4.456C63.388 4.456 64.112 4.64 64.768 5.008C65.432 5.376 65.952 5.888 66.328 6.544C66.712 7.2 66.904 7.94 66.904 8.764C66.904 9.588 66.712 10.332 66.328 10.996C65.944 11.652 65.424 12.164 64.768 12.532C64.112 12.9 63.388 13.084 62.596 13.084ZM62.596 11.212C63.268 11.212 63.804 10.988 64.204 10.54C64.612 10.092 64.816 9.5 64.816 8.764C64.816 8.02 64.612 7.428 64.204 6.988C63.804 6.54 63.268 6.316 62.596 6.316C61.916 6.316 61.372 6.536 60.964 6.976C60.564 7.416 60.364 8.012 60.364 8.764C60.364 9.508 60.564 10.104 60.964 10.552C61.372 10.992 61.916 11.212 62.596 11.212Z" fill="#287ECD"/>
</svg>
