<svg width="97" height="18" viewBox="0 0 97 18" fill="none" xmlns="http://www.w3.org/2000/svg">
<path d="M7.728 13.084C6.936 13.084 6.208 12.9 5.544 12.532C4.888 12.164 4.364 11.652 3.972 10.996C3.588 10.332 3.396 9.588 3.396 8.764C3.396 7.94 3.588 7.2 3.972 6.544C4.364 5.888 4.888 5.376 5.544 5.008C6.208 4.64 6.936 4.456 7.728 4.456C8.52 4.456 9.244 4.64 9.9 5.008C10.564 5.376 11.084 5.888 11.46 6.544C11.844 7.2 12.036 7.94 12.036 8.764C12.036 9.588 11.844 10.332 11.46 10.996C11.076 11.652 10.556 12.164 9.9 12.532C9.244 12.9 8.52 13.084 7.728 13.084ZM7.728 11.212C8.4 11.212 8.936 10.988 9.336 10.54C9.744 10.092 9.948 9.5 9.948 8.764C9.948 8.02 9.744 7.428 9.336 6.988C8.936 6.54 8.4 6.316 7.728 6.316C7.048 6.316 6.504 6.536 6.096 6.976C5.696 7.416 5.496 8.012 5.496 8.764C5.496 9.508 5.696 10.104 6.096 10.552C6.504 10.992 7.048 11.212 7.728 11.212ZM20.7136 13H18.6616L15.2296 7.804V13H13.1776V4.576H15.2296L18.6616 9.796V4.576H20.7136V13ZM25.357 4.576C26.245 4.576 27.021 4.752 27.685 5.104C28.349 5.456 28.861 5.952 29.221 6.592C29.589 7.224 29.773 7.956 29.773 8.788C29.773 9.612 29.589 10.344 29.221 10.984C28.861 11.624 28.345 12.12 27.673 12.472C27.009 12.824 26.237 13 25.357 13H22.201V4.576H25.357ZM25.225 11.224C26.001 11.224 26.605 11.012 27.037 10.588C27.469 10.164 27.685 9.564 27.685 8.788C27.685 8.012 27.469 7.408 27.037 6.976C26.605 6.544 26.001 6.328 25.225 6.328H24.253V11.224H25.225ZM35.2158 13L33.4638 9.82H32.9718V13H30.9198V4.576H34.3638C35.0278 4.576 35.5918 4.692 36.0558 4.924C36.5278 5.156 36.8798 5.476 37.1118 5.884C37.3438 6.284 37.4598 6.732 37.4598 7.228C37.4598 7.788 37.2998 8.288 36.9798 8.728C36.6678 9.168 36.2038 9.48 35.5878 9.664L37.5318 13H35.2158ZM32.9718 8.368H34.2438C34.6198 8.368 34.8998 8.276 35.0838 8.092C35.2758 7.908 35.3718 7.648 35.3718 7.312C35.3718 6.992 35.2758 6.74 35.0838 6.556C34.8998 6.372 34.6198 6.28 34.2438 6.28H32.9718V8.368ZM35.8878 3.148L34.0278 4.096L32.1678 3.148V1.732L34.0278 2.776L35.8878 1.732V3.148ZM40.7999 6.22V7.924H43.5479V9.508H40.7999V11.356H43.9079V13H38.7479V4.576H43.9079V6.22H40.7999ZM50.5201 4.576V10.312C50.5201 11.2 50.2681 11.884 49.7641 12.364C49.2681 12.844 48.5961 13.084 47.7481 13.084C46.8601 13.084 46.1481 12.832 45.6121 12.328C45.0761 11.824 44.8081 11.108 44.8081 10.18H46.8481C46.8481 10.532 46.9201 10.8 47.0641 10.984C47.2081 11.16 47.4161 11.248 47.6881 11.248C47.9361 11.248 48.1281 11.168 48.2641 11.008C48.4001 10.848 48.4681 10.616 48.4681 10.312V4.576H50.5201Z" fill="#041321"/>
<rect y="8" width="97" height="2" fill="white"/>
<path d="M56.796 11.416H59.484V13H54.744V4.576H56.796V11.416ZM65.7068 11.512H62.5628L62.0588 13H59.9108L62.9588 4.576H65.3348L68.3828 13H66.2108L65.7068 11.512ZM65.1788 9.928L64.1348 6.844L63.1028 9.928H65.1788ZM76.8464 13H74.7944L71.3624 7.804V13H69.3104V4.576H71.3624L74.7944 9.796V4.576H76.8464V13ZM83.9258 7.24C83.7738 6.96 83.5538 6.748 83.2658 6.604C82.9858 6.452 82.6538 6.376 82.2698 6.376C81.6058 6.376 81.0738 6.596 80.6738 7.036C80.2738 7.468 80.0738 8.048 80.0738 8.776C80.0738 9.552 80.2818 10.16 80.6978 10.6C81.1218 11.032 81.7018 11.248 82.4378 11.248C82.9418 11.248 83.3658 11.12 83.7098 10.864C84.0618 10.608 84.3178 10.24 84.4778 9.76H81.8738V8.248H86.3378V10.156C86.1858 10.668 85.9258 11.144 85.5578 11.584C85.1978 12.024 84.7378 12.38 84.1778 12.652C83.6178 12.924 82.9858 13.06 82.2818 13.06C81.4498 13.06 80.7058 12.88 80.0498 12.52C79.4018 12.152 78.8938 11.644 78.5258 10.996C78.1658 10.348 77.9858 9.608 77.9858 8.776C77.9858 7.944 78.1658 7.204 78.5258 6.556C78.8938 5.9 79.4018 5.392 80.0498 5.032C80.6978 4.664 81.4378 4.48 82.2698 4.48C83.2778 4.48 84.1258 4.724 84.8138 5.212C85.5098 5.7 85.9698 6.376 86.1938 7.24H83.9258ZM91.7705 13L90.0185 9.82H89.5265V13H87.4745V4.576H90.9185C91.5825 4.576 92.1465 4.692 92.6105 4.924C93.0825 5.156 93.4345 5.476 93.6665 5.884C93.8985 6.284 94.0145 6.732 94.0145 7.228C94.0145 7.788 93.8545 8.288 93.5345 8.728C93.2225 9.168 92.7585 9.48 92.1425 9.664L94.0865 13H91.7705ZM89.5265 8.368H90.7985C91.1745 8.368 91.4545 8.276 91.6385 8.092C91.8305 7.908 91.9265 7.648 91.9265 7.312C91.9265 6.992 91.8305 6.74 91.6385 6.556C91.4545 6.372 91.1745 6.28 90.7985 6.28H89.5265V8.368Z" fill="#287ECD"/>
</svg>
