<?xml version="1.0" standalone="no"?>
<!DOCTYPE svg PUBLIC "-//W3C//DTD SVG 20010904//EN"
 "http://www.w3.org/TR/2001/REC-SVG-20010904/DTD/svg10.dtd">
<svg version="1.0" xmlns="http://www.w3.org/2000/svg"
 width="120.000000pt" height="120.000000pt" viewBox="0 0 120.000000 120.000000"
 preserveAspectRatio="xMidYMid meet">
<metadata>
Created by potrace 1.11, written by Peter Selinger 2001-2013
</metadata>
<g transform="translate(0.000000,120.000000) scale(0.100000,-0.100000)"
fill="#000000" stroke="none">
<path d="M198 882 l-38 -3 0 -105 0 -104 -25 0 c-24 0 -25 -2 -25 -70 0 -68 1
-70 25 -70 l25 0 0 -105 0 -105 158 0 157 0 0 53 0 53 -80 -1 c-44 -1 -84 0
-90 2 -8 3 -11 44 -6 91 1 9 32 12 121 12 l120 0 0 -105 0 -106 68 3 67 3 2
90 c0 50 2 96 2 103 1 7 17 12 45 12 l44 0 69 -105 68 -105 70 2 70 3 -1 103
c0 100 0 102 23 102 22 0 23 4 23 70 0 67 -1 70 -23 70 -24 0 -24 1 -22 98 1
53 0 102 -2 107 -2 6 -32 9 -71 7 l-67 -3 1 -105 1 -104 -46 0 -46 0 -67 104
-67 104 -60 4 c-34 1 -66 2 -71 0 -6 -2 -10 -49 -10 -108 l0 -104 -120 0 c-89
0 -120 3 -121 13 -1 6 -2 52 -3 102 l-1 89 -30 6 c-16 3 -47 4 -67 2z"/>
</g>
</svg>
